<?xml version="1.0" standalone="no"?>
<!DOCTYPE svg PUBLIC "-//W3C//DTD SVG 20010904//EN"
 "http://www.w3.org/TR/2001/REC-SVG-20010904/DTD/svg10.dtd">
<svg version="1.0" xmlns="http://www.w3.org/2000/svg"
 width="2737.000000pt" height="2737.000000pt" viewBox="0 0 2737.000000 2737.000000"
 preserveAspectRatio="xMidYMid meet">
<metadata>
Created by potrace 1.11, written by Peter Selinger 2001-2013
</metadata>
<g transform="translate(0.000000,2737.000000) scale(0.100000,-0.100000)"
fill="#000000" stroke="none">
<path d="M12595 27339 c-242 -85 -359 -329 -299 -626 8 -43 16 -83 17 -89 1
-7 -32 -34 -73 -61 -234 -154 -473 -406 -644 -677 -41 -67 -77 -108 -138 -161
-46 -39 -116 -110 -157 -157 -74 -87 -74 -87 -102 -72 -37 19 -51 18 -83 -7
-35 -28 -36 -86 -2 -118 l25 -23 -26 -53 c-25 -50 -27 -52 -53 -42 -39 15 -77
1 -95 -33 -20 -39 -11 -74 27 -104 l30 -23 -25 -79 c-45 -143 -61 -263 -61
-463 l-1 -185 -170 -40 -169 -41 -106 63 -107 64 19 76 c22 93 24 264 4 338
-41 155 -168 277 -325 314 -69 16 -180 8 -256 -19 -132 -47 -290 -188 -387
-348 -37 -59 -56 -82 -67 -79 -9 3 -101 10 -206 17 -664 40 -1466 -103 -2183
-388 l-164 -65 -16 24 c-34 49 -139 152 -195 190 -117 80 -267 114 -389 89
-139 -29 -266 -128 -329 -256 -31 -64 -34 -78 -38 -181 -4 -132 16 -219 79
-345 l40 -80 -75 -87 c-178 -204 -341 -496 -436 -782 -42 -128 -62 -171 -111
-245 -115 -172 -204 -381 -243 -569 -46 -229 -35 -532 29 -747 l16 -52 -258
-261 c-141 -144 -331 -344 -422 -446 -111 -126 -173 -188 -192 -193 -20 -5
-34 -20 -46 -45 -9 -20 -17 -39 -19 -41 -1 -2 -44 15 -95 37 -237 104 -463
156 -761 175 -37 2 -38 3 -62 70 -49 141 -134 244 -245 296 -48 23 -67 26
-160 26 -96 0 -110 -3 -165 -30 -155 -78 -251 -240 -277 -466 l-11 -97 -136
-67 c-335 -165 -630 -370 -946 -662 -129 -119 -325 -328 -425 -453 -29 -36
-53 -66 -54 -68 -2 -1 -29 7 -62 18 -253 88 -497 3 -597 -208 -30 -62 -32 -75
-32 -173 0 -101 1 -108 37 -180 39 -79 115 -165 193 -219 32 -22 44 -37 41
-48 -47 -152 -55 -511 -17 -727 22 -123 32 -329 31 -638 0 -57 3 -71 22 -90
24 -24 88 -171 88 -201 0 -23 14 -48 47 -83 16 -16 55 -67 88 -112 98 -137
251 -270 410 -356 63 -35 83 -54 203 -201 74 -90 133 -166 133 -169 0 -4 -52
-25 -116 -46 -284 -95 -474 -226 -547 -378 -29 -59 -33 -75 -33 -156 0 -82 3
-96 33 -157 37 -76 97 -134 176 -173 64 -31 188 -63 274 -70 134 -12 131 -10
121 -53 -28 -123 11 -284 107 -432 16 -25 15 -28 -26 -85 -142 -203 -252 -469
-306 -741 -12 -61 -28 -107 -51 -144 -45 -75 -110 -243 -136 -353 -18 -78 -21
-122 -21 -297 -1 -183 2 -215 23 -300 52 -206 147 -399 271 -550 31 -38 46
-73 88 -215 72 -241 132 -452 132 -462 0 -5 -35 -3 -77 5 -95 17 -282 11 -368
-12 -33 -9 -101 -36 -151 -61 -369 -181 -327 -560 93 -844 107 -73 258 -140
476 -212 117 -39 215 -74 219 -77 3 -4 22 -79 42 -167 874 -3929 3680 -7224
7438 -8733 2022 -813 4225 -1072 6416 -756 3055 440 5853 2050 7807 4489 1046
1307 1815 2801 2265 4400 27 99 56 182 63 184 6 2 66 32 132 66 66 35 192 93
280 130 393 165 590 293 746 485 79 98 142 219 159 305 33 164 -44 319 -191
384 -104 46 -276 51 -429 12 -44 -11 -69 -14 -66 -7 11 28 246 595 261 631 10
22 49 74 89 115 227 243 353 587 333 915 -7 115 -17 174 -51 300 -14 52 -29
149 -35 230 -19 229 -67 423 -153 622 l-40 93 55 60 c32 34 73 94 94 137 37
74 38 80 38 182 0 97 -2 111 -29 163 -78 155 -244 240 -432 224 -83 -8 -199
-38 -255 -67 l-39 -20 -35 28 c-19 15 -35 35 -35 43 0 15 286 1440 296 1472 3
9 74 64 159 122 304 210 442 333 540 481 93 141 119 221 120 370 0 99 -3 116
-26 165 -40 84 -90 135 -172 175 -83 41 -178 56 -280 46 -37 -4 -67 -4 -67 0
0 3 22 112 48 240 46 222 51 237 91 299 98 149 175 344 208 524 26 137 23 390
-5 523 -30 138 -73 258 -136 378 -34 63 -65 141 -85 213 -43 158 -93 286 -166
433 -58 114 -167 289 -228 363 l-24 30 48 73 c79 121 93 169 94 303 0 104 -3
120 -27 172 -50 106 -149 191 -262 223 -45 13 -83 16 -155 12 -134 -7 -235
-44 -378 -139 l-75 -51 -156 76 c-532 255 -1231 407 -1878 407 l-161 0 -22 68
c-105 321 -398 469 -668 337 -150 -74 -243 -238 -243 -429 l0 -69 -132 129
c-170 165 -348 329 -535 491 -178 154 -446 373 -490 400 -24 14 -47 49 -92
139 -56 113 -140 248 -208 338 l-30 39 39 58 c22 32 51 86 65 121 24 55 27 77
27 173 1 101 -1 115 -28 173 -38 82 -131 171 -213 202 -160 62 -357 25 -547
-104 -38 -25 -70 -46 -73 -46 -2 0 -54 24 -116 54 -503 241 -1045 367 -1714
398 l-252 12 -16 50 c-44 135 -158 276 -265 328 -66 31 -168 52 -219 43 l-36
-6 -1 178 c-1 108 -7 209 -16 256 l-15 78 38 20 c61 31 75 76 38 123 -15 20
-29 26 -58 26 -20 0 -42 -5 -48 -11 -8 -8 -16 2 -28 35 l-18 45 32 36 c43 50
63 92 55 118 -12 39 -35 57 -75 57 -31 0 -43 -6 -60 -29 l-22 -30 -53 85 c-29
46 -68 103 -87 126 -18 24 -48 81 -67 128 -114 294 -335 635 -543 839 l-55 53
48 102 c58 121 74 197 68 314 -4 68 -11 101 -33 147 -51 108 -154 197 -264
229 -64 19 -192 21 -259 5 -115 -28 -305 -142 -400 -242 l-33 -34 -142 49
c-286 100 -660 179 -1007 213 -391 39 -952 26 -1318 -31 l-37 -5 -37 78 c-68
148 -176 261 -304 320 -50 23 -74 28 -164 30 -86 3 -116 0 -165 -18z m222
-300 c48 -23 88 -67 127 -139 l26 -49 -28 -44 c-34 -54 -58 -51 -48 7 3 20 9
51 12 70 5 29 2 37 -20 51 -24 16 -28 16 -51 1 -14 -9 -25 -20 -25 -24 0 -4
-4 -13 -9 -20 -6 -10 -15 -9 -44 8 -20 12 -40 19 -46 16 -5 -3 -28 12 -52 33
-50 45 -48 61 11 93 45 24 94 23 147 -3z m-148 -380 c1 -3 -5 -14 -13 -24 -13
-18 -15 -17 -30 19 -9 21 -16 43 -16 48 0 10 58 -32 59 -43z m1909 6 c673 -64
1309 -281 1714 -586 105 -79 285 -259 368 -369 65 -86 212 -321 205 -328 -2
-2 -16 5 -32 16 -99 69 -321 157 -480 189 -124 25 -396 24 -513 -1 -292 -62
-519 -184 -720 -386 -150 -149 -262 -327 -331 -525 -15 -44 -46 -121 -68 -172
-22 -51 -46 -113 -52 -137 l-11 -46 -29 40 c-16 21 -40 47 -54 56 -14 9 -25
26 -25 39 0 27 -36 82 -70 106 -36 26 -134 49 -210 49 -128 0 -204 -20 -311
-80 -28 -16 -42 -18 -62 -11 -38 15 -47 39 -58 164 -39 454 -288 850 -677
1081 -182 107 -376 167 -606 187 -72 6 -132 12 -133 13 -5 4 125 167 176 219
133 136 380 268 727 387 240 82 320 100 482 110 189 11 570 4 770 -15z m1844
-12 c39 -40 47 -100 23 -174 -21 -64 -63 -140 -103 -188 l-28 -34 -52 35 -52
35 62 59 c35 33 78 66 96 73 37 15 50 48 32 81 -10 18 -18 21 -48 18 -21 -3
-45 -8 -55 -13 -16 -6 -17 -4 -11 19 9 38 -18 76 -55 76 -39 0 -47 -14 -55
-90 -8 -75 -22 -127 -41 -153 -12 -17 -17 -16 -89 20 -42 20 -76 41 -76 46 0
17 127 132 184 166 80 48 124 62 184 58 44 -3 59 -9 84 -34z m-3727 -878 c256
-52 446 -154 631 -339 249 -248 376 -568 361 -911 -25 -584 -443 -1061 -1017
-1161 -142 -24 -381 -15 -512 20 -135 36 -261 92 -376 169 -344 229 -543 602
-543 1017 0 337 121 630 356 865 204 205 438 315 760 359 59 8 262 -3 340 -19z
m3616 -341 c266 -50 482 -167 670 -361 79 -82 209 -260 209 -288 0 -5 16 -42
35 -81 75 -152 116 -401 96 -588 -34 -312 -156 -563 -374 -773 -332 -319 -806
-424 -1245 -277 -348 116 -636 402 -760 754 -50 142 -66 239 -66 400 0 98 6
173 17 233 100 502 491 891 987 982 105 19 329 19 431 -1z m-6251 -612 c41
-30 60 -79 60 -157 0 -63 -2 -67 -13 -45 -19 37 -58 37 -111 1 -25 -17 -46
-31 -49 -31 -2 0 1 22 7 49 12 60 -1 81 -50 81 -40 0 -45 -8 -69 -110 -22 -93
-34 -118 -46 -99 -15 25 -10 125 11 193 18 56 27 70 63 94 80 55 144 63 197
24z m43 -280 c-4 -15 -26 -33 -65 -53 -33 -17 -62 -28 -65 -26 -2 3 22 23 54
46 32 22 63 45 68 50 14 12 15 9 8 -17z m-838 -143 c627 -51 1098 -252 1478
-631 49 -49 87 -91 85 -93 -1 -2 -42 7 -89 20 -141 37 -251 48 -426 42 -169
-6 -254 -21 -398 -68 -207 -69 -384 -178 -539 -334 -321 -322 -380 -393 -451
-542 -85 -177 -118 -329 -119 -540 -1 -84 -4 -153 -8 -153 -10 0 -25 19 -48
57 -41 68 -133 87 -305 63 -124 -18 -220 -81 -292 -191 -68 -103 -86 -129 -89
-126 -2 1 -10 38 -19 82 -57 277 -186 517 -390 720 -278 279 -614 419 -1005
418 -207 0 -381 -33 -546 -103 l-44 -19 27 42 c128 205 257 371 378 485 238
225 758 567 964 633 470 150 947 237 1386 252 112 4 296 -2 450 -14z m-2860
-160 c46 -24 137 -109 167 -158 l21 -34 -41 -38 c-46 -43 -61 -47 -85 -21 -13
14 -14 24 -4 60 10 38 9 44 -10 63 -30 30 -69 19 -90 -25 l-16 -34 -39 20
c-26 14 -48 18 -68 14 -27 -5 -33 -1 -56 34 -29 43 -27 65 10 99 56 52 132 59
211 20z m7850 -256 l36 -17 -3 -61 -3 -60 -45 -3 c-24 -2 -59 -1 -77 3 -32 6
-33 7 -33 59 0 88 45 117 125 79z m381 -104 c34 -201 128 -435 225 -564 83
-108 206 -231 285 -285 84 -56 236 -117 379 -154 266 -68 472 -77 717 -31
l147 27 64 -21 c35 -12 74 -31 86 -43 51 -47 -1 -119 -159 -223 -238 -155
-393 -321 -490 -527 -32 -68 -41 -101 -49 -182 -11 -109 -26 -141 -75 -161
-47 -20 -98 -3 -156 51 -46 43 -47 46 -52 112 -11 157 -108 267 -247 279 -79
7 -146 -10 -228 -60 l-68 -41 -515 -6 c-283 -4 -522 -10 -530 -13 -8 -3 -94
-11 -190 -16 -326 -20 -539 19 -654 119 -35 32 -37 36 -31 76 14 94 -34 245
-98 312 -123 129 -300 100 -534 -87 -76 -61 -158 -90 -268 -94 l-60 -2 -9 190
c-13 289 12 406 106 490 75 68 158 94 405 125 189 23 257 45 379 121 149 94
366 263 450 352 76 80 159 194 218 300 30 53 30 53 134 15 67 -25 88 -55 85
-125 -2 -44 2 -55 20 -68 12 -8 32 -15 45 -15 13 0 37 -7 54 -16 41 -21 310
-39 349 -23 30 12 56 62 65 122 10 80 13 87 37 87 31 1 98 33 121 59 11 11 21
20 23 18 2 -2 10 -46 19 -98z m-4028 -314 c389 -75 738 -345 906 -700 75 -158
126 -380 126 -550 0 -172 -55 -405 -130 -556 -120 -240 -328 -453 -553 -566
-377 -189 -788 -192 -1157 -7 -350 175 -593 493 -677 887 -25 116 -25 371 0
487 70 327 251 606 516 794 150 107 352 190 521 215 41 6 86 13 100 15 49 9
266 -3 348 -19z m-3778 -610 c161 -25 311 -75 436 -147 408 -233 648 -641 648
-1103 1 -158 -13 -247 -56 -385 -80 -252 -232 -469 -436 -623 -442 -332 -1019
-353 -1474 -54 -113 74 -276 233 -345 337 -94 140 -153 274 -194 440 -20 82
-23 120 -23 280 -1 171 1 193 27 294 66 252 187 460 367 630 282 264 676 389
1050 331z m10465 -245 c249 -26 489 -142 652 -314 126 -132 213 -287 261 -465
22 -84 25 -115 25 -256 0 -141 -3 -172 -26 -257 -120 -450 -502 -761 -962
-785 -414 -21 -815 222 -990 599 -287 623 89 1350 760 1467 119 21 166 23 280
11z m-4415 -289 c37 -36 64 -128 57 -190 -7 -57 -104 -210 -169 -265 -150
-130 -393 -210 -487 -162 -34 18 -61 66 -61 110 0 58 286 377 414 460 121 80
199 95 246 47z m7641 -430 c402 -110 693 -431 765 -844 42 -242 -26 -548 -167
-754 -45 -65 -163 -187 -232 -240 -261 -201 -621 -266 -932 -167 -292 92 -510
282 -640 557 -191 403 -103 875 222 1188 143 137 313 229 502 270 118 26 370
21 482 -10z m-5180 -7 c77 -39 76 -203 -2 -356 -18 -36 -21 -37 -47 -26 -15 7
-31 15 -35 18 -12 10 61 138 83 145 23 7 34 38 26 71 -10 38 -51 42 -108 12
l-48 -26 0 25 c0 32 -17 63 -35 63 -22 0 7 60 36 76 33 18 94 17 130 -2z
m-3465 -344 c23 -12 64 -45 92 -74 55 -57 109 -153 95 -167 -5 -5 -31 -12 -57
-15 l-48 -7 5 44 c3 24 9 58 12 75 6 26 3 34 -16 48 -32 22 -46 20 -76 -10
-25 -25 -25 -25 -40 -5 -15 23 -43 27 -73 11 -16 -9 -21 -3 -36 42 -16 49 -16
52 2 65 26 19 92 16 140 -7z m2634 -4 c494 -70 836 -195 1130 -415 82 -61 244
-214 321 -302 l49 -56 -65 23 c-134 49 -257 68 -440 68 -137 0 -190 -5 -272
-22 -321 -69 -604 -247 -798 -502 -27 -36 -77 -96 -112 -134 -77 -84 -143
-188 -194 -306 -57 -133 -80 -228 -86 -367 -3 -68 -9 -123 -14 -123 -12 0 -39
30 -39 44 0 19 -62 72 -99 85 -121 40 -376 -28 -456 -122 l-33 -39 -49 14 -48
14 -26 94 c-35 127 -49 163 -108 277 -157 305 -453 555 -777 656 -149 47 -246
61 -419 61 -162 -1 -294 -20 -405 -59 -24 -8 -45 -13 -48 -11 -12 12 62 120
137 199 112 117 208 193 431 342 209 139 404 254 631 373 140 74 169 85 290
112 227 52 426 83 734 114 104 10 655 -3 765 -18z m-5861 -108 c15 -68 14 -76
-10 -83 -11 -4 -22 -5 -24 -3 -3 4 -45 142 -45 151 0 3 16 0 34 -5 31 -10 36
-16 45 -60z m276 -27 c119 -290 375 -534 661 -630 140 -47 263 -64 469 -64
204 0 314 15 453 64 48 17 137 44 197 59 125 33 245 79 358 139 58 30 90 41
123 41 92 0 144 -54 144 -150 0 -90 -25 -164 -91 -269 -73 -116 -164 -300
-214 -434 -27 -75 -50 -116 -96 -174 -33 -41 -70 -93 -82 -114 -26 -47 -42
-46 -140 7 -24 13 -34 14 -58 4 -78 -33 -61 -123 33 -171 l40 -20 -39 -34
c-33 -30 -45 -34 -95 -35 -49 0 -59 -4 -77 -26 -25 -31 -27 -61 -6 -90 13 -20
12 -22 -25 -39 -89 -40 -256 1 -435 108 -90 54 -465 315 -503 350 -13 12 -46
54 -73 94 -27 39 -53 74 -57 77 -5 3 3 38 16 78 21 60 26 93 26 183 1 127 -15
175 -79 240 -110 109 -279 115 -434 15 -34 -22 -83 -60 -109 -83 -63 -58 -262
-185 -335 -215 l-59 -24 -147 21 c-80 11 -177 23 -216 26 -52 5 -92 16 -156
46 -67 31 -105 42 -172 49 -92 9 -121 20 -137 50 -19 35 -10 52 58 124 205
216 340 480 386 758 l7 37 92 -60 c51 -34 119 -75 152 -91 32 -17 71 -43 86
-59 24 -26 34 -29 86 -29 79 0 289 52 315 78 25 25 34 96 20 169 -9 52 -9 52
19 58 16 4 31 11 35 16 12 20 26 2 59 -80z m-388 -1 l21 -70 -25 -6 c-13 -4
-25 -5 -27 -3 -2 2 -10 32 -18 66 -11 44 -12 65 -5 72 22 22 34 9 54 -59z
m14437 -219 c26 -16 76 -71 76 -83 0 -2 -17 -2 -39 0 -31 3 -44 -2 -73 -27
l-35 -31 -27 40 c-14 22 -31 40 -36 40 -15 0 -12 33 6 58 20 29 84 30 128 3z
m122 -211 c17 -81 13 -90 -38 -90 -29 0 -34 9 -40 82 -3 31 0 38 18 42 13 4
26 15 29 27 10 29 14 21 31 -61z m-4434 -107 c17 -19 14 -78 -4 -89 -5 -3 -29
-3 -54 1 -42 6 -44 8 -44 40 0 18 3 40 6 49 9 22 76 21 96 -1z m5133 -123
c752 -55 1385 -251 1885 -583 265 -176 440 -357 588 -607 46 -78 142 -277 142
-295 0 -2 -33 19 -73 48 -139 100 -309 174 -487 213 -131 29 -393 26 -520 -5
-219 -54 -415 -156 -567 -293 -32 -30 -90 -82 -130 -116 -141 -123 -238 -279
-318 -510 -8 -22 -61 49 -68 90 -12 78 -75 128 -193 153 -137 29 -268 12 -340
-43 -16 -13 -46 -34 -68 -48 l-38 -25 6 24 c29 115 34 339 11 470 -76 438
-362 796 -765 960 -94 38 -223 73 -315 85 l-59 7 68 60 c209 185 477 326 771
405 82 22 252 26 470 10z m-8064 -60 c246 -50 452 -162 627 -340 236 -240 365
-601 333 -929 -29 -287 -146 -536 -346 -737 -226 -227 -515 -347 -835 -348
-654 -1 -1190 532 -1190 1184 0 657 525 1186 1183 1189 92 1 157 -5 228 -19z
m10431 -259 c29 -33 38 -90 18 -121 -7 -10 -10 -11 -10 -2 0 22 -43 35 -82 24
-32 -9 -35 -8 -31 8 6 24 -12 57 -36 65 -26 8 -64 -12 -123 -65 -51 -45 -64
-36 -31 21 37 63 138 112 217 105 41 -3 55 -9 78 -35z m-23213 -6 c44 -38 47
-58 13 -104 l-29 -39 -17 29 c-23 39 -60 57 -81 39 -21 -17 -19 -49 4 -74 19
-21 55 -115 48 -123 -3 -2 -35 -12 -72 -23 l-68 -19 5 88 c11 190 108 301 197
226z m9189 -95 c424 -54 802 -355 956 -762 55 -148 70 -241 69 -423 -1 -190
-19 -282 -86 -449 -69 -174 -221 -370 -376 -487 l-64 -49 -47 35 c-83 61 -135
79 -225 79 -65 0 -90 -4 -136 -26 -106 -49 -179 -140 -195 -245 -6 -42 -8 -43
-43 -43 -171 1 -370 48 -527 124 -139 69 -246 148 -354 263 -440 470 -421
1200 42 1655 257 253 621 373 986 328z m-9099 -126 c1 -16 -7 -24 -25 -28 -15
-4 -28 -5 -31 -2 -3 2 5 26 18 53 21 46 22 47 29 23 5 -14 8 -35 9 -46z
m23080 -9 c-18 -25 -40 -52 -49 -60 -21 -19 -65 -11 -103 19 l-28 22 103 32
c57 17 104 31 106 31 2 1 -11 -19 -29 -44z m-3464 -110 c136 -35 317 -125 422
-209 173 -140 303 -337 367 -558 157 -543 -141 -1130 -675 -1331 -50 -19 -200
-57 -224 -57 -2 0 -22 37 -45 82 -78 153 -173 293 -277 411 l-43 47 59 70 c71
85 119 180 133 263 10 59 13 64 55 89 94 59 111 191 35 271 -40 42 -75 57
-135 57 -64 0 -109 -26 -146 -83 -24 -37 -25 -37 -91 -37 -114 0 -247 -58
-372 -163 -61 -51 -74 -58 -90 -48 -38 23 -206 108 -276 139 l-73 32 6 53 c19
161 54 277 126 417 154 301 440 509 791 576 115 22 328 12 453 -21z m-19045
-64 c52 -10 122 -27 155 -36 l60 -18 -55 -14 c-302 -77 -580 -308 -720 -597
-60 -124 -86 -204 -105 -321 -49 -300 31 -629 210 -862 49 -64 52 -71 29 -62
-15 5 -51 11 -81 13 -29 2 -60 10 -69 17 -8 6 -37 14 -63 17 -62 6 -129 -29
-207 -105 -90 -89 -116 -143 -129 -265 l-6 -58 -77 79 c-129 131 -276 223
-452 281 -504 170 -1074 -41 -1339 -494 l-39 -67 -7 88 c-12 161 22 387 80
542 112 292 311 582 625 905 514 530 1133 886 1690 970 125 20 371 13 500 -13z
m702 -215 c201 -51 378 -161 508 -316 l41 -50 -68 -85 c-142 -179 -278 -417
-360 -628 -25 -65 -48 -105 -78 -138 -162 -174 -293 -428 -349 -681 -8 -33
-29 -35 -133 -14 -370 78 -656 349 -754 716 -20 72 -23 110 -23 245 0 187 17
270 89 422 54 114 90 167 177 259 144 152 354 261 563 294 97 15 278 4 387
-24z m14724 -155 c39 -24 90 -101 109 -165 20 -68 20 -72 -17 -85 -17 -6 -40
-19 -50 -28 -18 -16 -19 -16 -9 7 5 14 16 38 24 53 29 55 -14 103 -70 78 -21
-10 -28 -10 -31 -1 -9 25 -44 52 -63 47 -17 -5 -19 1 -19 47 0 29 3 56 7 59
13 14 89 6 119 -12z m6849 -295 c310 -81 570 -296 709 -587 153 -319 150 -655
-9 -974 -144 -290 -391 -486 -725 -576 -73 -20 -109 -23 -255 -23 -151 0 -181
3 -266 26 -135 37 -237 81 -342 150 -333 219 -531 636 -488 1024 55 491 396
870 876 974 132 29 360 22 500 -14z m-16265 -180 c256 -59 454 -169 640 -356
191 -190 302 -397 362 -670 28 -127 30 -365 5 -493 -52 -259 -166 -481 -345
-668 -113 -119 -220 -198 -367 -270 -137 -67 -248 -101 -398 -123 -170 -26
-219 -22 -398 29 -184 53 -434 137 -487 164 -198 101 -421 368 -521 624 -66
170 -86 283 -86 482 0 225 32 373 121 561 89 189 278 410 448 524 161 107 387
194 571 219 116 16 335 5 455 -23z m10699 -11 c608 -100 1147 -315 1535 -613
247 -189 457 -465 566 -742 l19 -49 -80 55 c-374 254 -840 293 -1237 104 -135
-65 -224 -125 -325 -219 -45 -42 -110 -100 -144 -129 -116 -99 -229 -275 -269
-420 l-17 -62 -29 27 c-15 15 -28 37 -28 50 0 13 -9 41 -20 63 -42 82 -179
127 -357 116 -92 -6 -107 -4 -149 15 -70 33 -84 64 -84 182 0 112 -26 258 -66
369 -167 464 -564 776 -1055 829 l-107 12 27 22 c47 39 174 117 265 162 280
141 815 249 1251 252 118 1 184 -4 304 -24z m-2850 -80 c32 -16 51 -59 51
-116 0 -84 -54 -301 -112 -451 -26 -70 -32 -78 -55 -78 -15 0 -35 -7 -45 -17
-20 -18 -24 -73 -8 -103 8 -15 2 -32 -27 -82 -44 -77 -183 -298 -187 -298 -2
0 12 73 30 163 41 199 74 308 170 549 78 197 114 322 114 401 0 41 3 47 20 47
12 0 34 -7 49 -15z m-3286 -250 c101 -207 279 -406 463 -517 82 -50 200 -96
324 -125 200 -47 537 -41 815 14 302 59 605 252 797 507 33 45 63 82 67 84 3
1 51 -346 105 -770 54 -425 101 -786 104 -803 5 -27 -3 -22 -89 59 -52 48
-138 120 -191 159 l-97 72 20 30 c36 54 97 188 113 251 21 79 20 197 0 257
-22 64 -91 139 -156 168 -73 33 -198 33 -278 0 -124 -51 -288 -193 -375 -324
-28 -42 -43 -56 -54 -52 -48 19 -286 78 -416 104 -313 63 -561 85 -940 85
-502 -1 -991 -61 -1443 -178 -50 -13 -94 -21 -96 -17 -16 26 -46 152 -46 193
l0 49 108 107 c164 163 282 353 343 552 13 41 24 77 25 78 1 2 35 -18 76 -45
180 -120 250 -148 357 -140 42 3 116 13 164 22 113 23 122 34 122 154 l1 85
29 8 c17 4 44 19 60 32 l30 25 9 -22 c5 -12 27 -58 49 -102z m-352 88 c4 -4
11 -31 15 -59 7 -59 9 -58 -82 -69 l-52 -7 -11 52 c-15 68 -15 67 17 85 27 16
97 15 113 -2z m8360 -12 c35 -36 38 -85 9 -149 -38 -84 -57 -102 -103 -101
-23 1 -53 4 -67 8 -23 6 -20 8 22 19 26 7 58 12 72 12 35 0 60 38 47 72 -12
33 -33 40 -90 32 l-47 -6 1 71 0 71 63 0 c57 0 67 -3 93 -29z m-16535 -6 c466
-81 858 -400 1021 -834 74 -198 102 -463 69 -663 -68 -416 -326 -774 -695
-966 -373 -194 -793 -199 -1176 -13 -301 147 -526 389 -648 696 -251 633 27
1355 638 1657 244 120 540 166 791 123z m16264 -84 c-6 -22 -17 -47 -26 -56
-19 -18 -44 -20 -44 -2 0 31 71 130 78 108 2 -5 -2 -28 -8 -50z m-21308 -183
c-19 -19 -15 -33 23 -82 34 -44 34 -46 12 -48 -12 0 -32 0 -44 1 -36 3 -63
-17 -63 -46 0 -26 0 -26 -20 -8 -31 28 -46 87 -31 124 17 41 40 59 87 69 44
10 53 7 36 -10z m145 -20 c61 -28 68 -40 45 -77 l-19 -31 -44 48 c-24 27 -52
58 -62 70 -17 22 -17 22 10 16 16 -4 47 -16 70 -26z m17964 -61 c253 -65 455
-199 608 -402 64 -85 152 -263 180 -365 69 -248 44 -521 -69 -757 -54 -114
-110 -194 -203 -290 -291 -300 -718 -406 -1114 -277 -359 117 -626 404 -724
779 -21 78 -24 112 -23 260 0 151 3 181 27 270 52 192 173 395 310 521 159
146 375 251 583 284 104 16 317 5 425 -23z m-17991 -142 c0 -15 -36 -75 -44
-75 -15 0 -110 55 -123 72 -9 11 4 12 78 10 49 -2 89 -5 89 -7z m22769 -139
c11 -17 22 -51 26 -76 10 -65 27 -86 81 -99 26 -7 58 -21 72 -32 14 -10 43
-24 66 -30 50 -14 202 -39 234 -39 38 0 79 51 98 119 17 59 18 61 51 61 34 0
84 20 115 47 15 13 17 8 23 -64 15 -188 68 -359 154 -498 110 -178 244 -303
420 -393 53 -27 139 -71 192 -99 182 -95 353 -136 569 -136 159 -1 263 15 397
60 97 32 239 102 318 157 83 58 86 59 80 44 -2 -7 -126 -616 -275 -1353 -148
-737 -272 -1350 -275 -1362 -4 -18 -24 -29 -103 -55 -87 -29 -109 -32 -207
-32 -101 0 -128 5 -333 58 -123 31 -294 82 -380 112 -86 31 -247 78 -357 105
-110 27 -210 51 -221 55 -18 5 -22 16 -27 69 -12 125 -67 233 -148 287 -99 66
-245 54 -320 -27 -13 -14 -42 -35 -64 -47 -22 -11 -89 -71 -150 -133 -124
-127 -145 -138 -300 -156 -87 -9 -143 -5 -179 13 -16 9 -5 17 71 58 125 65
177 103 259 184 145 145 224 361 180 494 -55 166 -260 195 -599 85 -60 -19
-115 -32 -123 -29 -19 7 -13 53 38 301 83 404 97 524 78 695 -6 58 -13 120
-17 138 l-5 32 69 0 c82 0 162 22 200 54 20 18 27 33 27 61 0 66 -62 94 -133
59 -33 -16 -131 -22 -169 -9 -22 6 -27 16 -37 77 -7 35 -6 36 27 43 78 17 186
92 208 145 16 40 -1 84 -40 100 -37 15 -61 7 -116 -41 -81 -70 -126 -66 -176
17 -74 125 -70 108 -65 239 7 178 47 270 141 317 224 112 414 267 528 429 40
56 43 58 60 42 10 -9 27 -30 37 -47z m421 4 c25 -18 27 -23 19 -62 -4 -24 -8
-46 -9 -49 0 -6 -111 9 -118 16 -2 2 -1 26 3 54 7 50 14 57 58 60 11 0 31 -8
47 -19z m-22083 -291 c294 -33 553 -185 713 -419 308 -452 194 -1061 -256
-1371 -74 -50 -224 -117 -314 -139 -506 -123 -1018 163 -1173 655 -74 236 -57
491 48 713 56 119 113 198 206 288 158 153 358 248 571 273 104 12 100 12 205
0z m1745 -164 c98 -46 242 -89 339 -100 l56 -7 6 -171 c8 -248 52 -414 164
-627 l56 -105 18 -180 c10 -99 25 -259 34 -355 8 -96 17 -191 19 -210 l3 -35
-411 0 c-437 0 -531 -7 -702 -50 -214 -54 -318 -146 -318 -279 0 -152 115
-276 324 -348 99 -34 552 -147 670 -167 63 -11 196 -25 295 -31 99 -6 190 -13
201 -15 23 -5 37 -55 27 -95 -5 -19 -11 -21 -47 -16 -55 9 -379 -10 -520 -30
-338 -47 -702 -150 -1060 -299 -134 -56 -139 -57 -156 -39 -143 152 -825 967
-1011 1209 -5 7 19 8 79 1 177 -19 404 22 579 104 173 81 358 238 457 388 146
221 214 495 188 757 -11 105 -33 215 -57 276 -5 14 4 17 55 21 40 3 69 11 88
25 l27 21 52 -49 c66 -63 100 -65 170 -13 70 53 153 135 164 163 12 31 -2 76
-41 127 l-29 39 22 23 c19 20 22 35 22 100 0 42 -4 88 -8 100 -8 20 4 15 71
-32 44 -31 123 -76 174 -101z m18347 21 c187 -52 351 -147 486 -281 379 -378
430 -956 123 -1402 -58 -83 -187 -211 -273 -270 -356 -241 -805 -254 -1179
-35 -99 58 -255 206 -324 306 -146 210 -212 438 -199 685 26 507 391 921 894
1016 124 23 352 14 472 -19z m-18751 -209 l22 -23 -35 -34 -35 -34 -25 24
c-29 27 -32 52 -9 74 22 23 57 20 82 -7z m4281 -332 c25 -12 29 -22 35 -76 4
-33 6 -62 4 -64 -2 -2 -19 -6 -39 -10 l-36 -7 -11 58 c-23 113 -14 131 47 99z
m-99 -142 c0 -13 -6 -23 -14 -23 -15 0 -20 17 -32 94 -5 36 -3 50 7 57 11 6
17 -4 26 -49 7 -31 12 -67 13 -79z m12623 -393 c23 -18 24 -23 15 -62 -5 -23
-11 -44 -13 -46 -2 -2 -28 1 -59 8 l-55 11 6 47 c3 26 11 50 17 54 20 14 63 8
89 -12z m-459 -23 c14 -18 28 -53 31 -77 4 -25 8 -55 11 -68 7 -36 76 -61 196
-71 57 -5 144 -15 195 -22 68 -10 98 -10 116 -2 26 12 61 78 72 136 5 23 11
34 20 31 24 -9 95 16 129 46 l33 30 7 -83 c13 -152 49 -272 134 -442 104 -209
227 -343 367 -397 22 -9 73 -39 113 -66 l73 -50 -59 -32 c-100 -53 -197 -145
-279 -262 -22 -32 -42 -55 -45 -53 -12 12 -373 98 -506 120 -443 75 -983 78
-1488 8 -140 -19 -209 -13 -359 34 -133 41 -381 144 -409 169 -39 37 -49 91
-41 229 16 291 64 354 270 355 55 0 129 -5 165 -11 84 -15 296 -15 381 0 179
30 364 105 516 210 92 63 223 186 276 259 17 23 36 42 43 42 7 0 24 -15 38
-33z m-6976 -53 c252 -45 494 -170 686 -354 205 -197 337 -436 397 -723 31
-143 31 -371 0 -514 -59 -282 -176 -498 -376 -698 -190 -190 -375 -294 -640
-362 -81 -20 -133 -26 -270 -30 -176 -5 -277 5 -416 44 -53 15 -63 21 -80 54
-10 21 -19 41 -19 43 0 3 15 12 33 19 53 23 146 86 158 108 22 42 -20 109 -69
109 -13 0 -51 -16 -83 -36 -66 -40 -121 -53 -144 -34 -24 20 -19 27 38 53 128
58 194 173 136 236 -16 17 -30 21 -62 19 -38 -3 -44 -7 -63 -43 -23 -45 -60
-70 -133 -89 -49 -13 -51 -12 -74 13 -14 14 -50 77 -82 139 -109 215 -251 408
-438 596 l-108 110 6 85 c48 616 475 1114 1069 1246 164 37 363 40 534 9z
m4029 -3 c117 -24 249 -69 344 -116 251 -127 478 -354 604 -605 37 -73 85
-192 85 -209 0 -5 -19 -5 -42 1 -61 14 -138 1 -207 -33 -69 -35 -103 -71 -140
-149 -23 -49 -26 -67 -25 -160 1 -86 6 -119 28 -185 15 -44 38 -100 52 -124
13 -24 23 -45 22 -46 -327 -220 -536 -459 -713 -816 -43 -87 -71 -129 -118
-176 l-61 -63 -117 0 c-440 0 -868 238 -1114 618 -252 392 -285 890 -86 1308
202 424 591 707 1066 774 96 14 308 4 422 -19z m10295 -41 c24 -29 19 -89 -13
-174 -16 -44 -29 -60 -86 -101 -86 -61 -138 -85 -190 -85 -69 0 -96 19 -117
83 -3 10 -3 50 1 89 l6 70 66 49 c114 84 155 101 240 97 63 -3 76 -7 93 -28z
m-4602 -1661 c-89 -448 -164 -825 -167 -837 -5 -20 -15 -6 -59 79 -155 295
-385 568 -634 753 -52 38 -97 71 -99 73 -2 1 6 14 17 30 89 127 143 335 113
439 l-9 31 158 -5 c174 -5 274 5 409 44 105 30 262 106 356 171 39 27 71 46
73 42 2 -4 -70 -373 -158 -820z m1129 554 c21 -14 23 -20 19 -71 -6 -68 -38
-155 -77 -209 -58 -80 -341 -177 -499 -171 -80 3 -85 4 -113 36 -24 26 -29 41
-29 81 0 40 7 59 40 109 57 85 115 128 224 167 221 79 369 99 435 58z m-18581
-258 c42 -35 53 -71 50 -156 l-3 -74 -33 -3 -32 -3 25 37 c14 20 25 47 25 58
0 45 -48 62 -73 26 -14 -21 -14 -21 -21 2 -3 13 -6 33 -6 46 0 12 -7 25 -15
28 -18 7 -20 50 -2 57 28 12 57 6 85 -18z m-2811 -201 c210 -247 196 -221 126
-228 -121 -13 -426 -26 -628 -25 -219 0 -334 13 -394 43 -125 65 28 203 343
308 117 40 313 86 368 87 22 1 51 -27 185 -185z m21987 -44 c44 -39 66 -104
66 -192 l0 -68 -32 0 c-44 0 -54 9 -61 50 -9 57 -46 130 -72 142 -19 9 -30 7
-51 -6 -30 -20 -29 -38 5 -123 l21 -53 -41 0 -42 0 6 68 c16 181 107 264 201
182z m-9739 -207 c4 -49 8 -90 9 -93 0 -3 -10 -7 -23 -8 -36 -6 -51 22 -51 94
0 54 3 65 22 78 12 9 25 16 29 16 4 0 10 -39 14 -87z m85 72 c34 -18 42 -42
38 -111 -3 -45 -5 -49 -29 -52 -26 -3 -27 0 -33 50 -4 29 -9 70 -12 91 -6 42
-5 43 36 22z m-9709 -55 c204 -30 285 -56 538 -171 73 -33 237 -140 296 -192
l40 -35 -151 5 c-169 6 -298 -10 -433 -53 -180 -59 -354 -168 -482 -303 -231
-242 -283 -316 -358 -506 -73 -186 -84 -239 -85 -415 -1 -85 2 -168 7 -185 l7
-30 -21 28 c-60 78 -176 82 -329 10 -41 -19 -81 -36 -88 -37 -14 -2 -92 -102
-92 -117 0 -5 -12 -28 -27 -50 l-27 -41 -22 65 c-54 159 -143 305 -266 433
-169 176 -340 276 -587 342 -85 22 -116 25 -271 26 -119 0 -196 -4 -240 -14
-36 -8 -95 -14 -132 -12 -81 3 -83 9 -39 105 45 98 117 191 289 373 319 339
345 359 657 489 432 180 793 267 1275 309 101 9 409 -5 541 -24z m2494 -125
c95 -19 240 -68 310 -102 155 -78 335 -229 444 -373 108 -144 199 -355 232
-540 19 -106 17 -325 -4 -433 -141 -714 -849 -1158 -1549 -971 -464 124 -826
523 -903 994 -19 122 -19 303 0 416 68 386 323 728 673 903 91 46 258 100 359
116 111 18 328 13 438 -10z m3666 9 c440 -75 815 -388 964 -804 48 -135 66
-228 72 -375 13 -348 -102 -653 -344 -906 l-90 -94 -26 51 c-35 69 -134 200
-190 251 -109 100 -221 153 -342 160 -225 15 -413 -106 -486 -313 -28 -79 -36
-252 -17 -350 l14 -72 -90 24 c-50 14 -146 51 -212 84 -682 333 -909 1166
-494 1805 70 107 242 277 352 349 145 94 311 160 477 190 106 20 298 19 412 0z
m13284 -114 c144 -16 269 -39 437 -81 629 -155 1178 -440 1565 -812 221 -213
347 -400 433 -642 28 -81 70 -234 70 -260 0 -5 -38 26 -84 70 -196 186 -438
289 -707 302 -143 7 -244 -5 -376 -43 -292 -85 -540 -294 -674 -568 -27 -55
-39 -72 -39 -55 0 13 -10 44 -22 69 -11 25 -20 58 -19 74 2 44 -35 111 -79
141 -56 39 -164 76 -240 82 -53 4 -78 1 -137 -20 l-71 -25 19 56 c131 376 65
778 -177 1080 -185 232 -482 390 -769 411 l-90 6 70 41 c256 151 562 211 890
174z m-22230 -125 c25 -11 27 -14 9 -14 -36 -2 -49 -26 -36 -68 6 -21 10 -38
9 -39 -7 -7 -140 35 -147 46 -12 19 6 48 43 70 37 23 80 25 122 5z m118 -81
l46 -46 -27 -34 c-15 -19 -30 -34 -33 -34 -7 0 -19 29 -46 117 -17 56 -18 61
-2 53 9 -5 37 -30 62 -56z m15715 -120 c45 -8 122 -28 170 -45 507 -178 842
-646 842 -1179 0 -466 -253 -882 -670 -1104 -282 -150 -654 -179 -962 -76 -69
23 -200 81 -216 95 -2 1 10 25 27 53 143 243 188 515 113 676 -116 248 -416
310 -690 142 -31 -19 -60 -32 -64 -28 -4 4 -13 62 -19 129 -56 564 294 1104
834 1289 114 39 203 56 337 63 143 7 183 5 298 -15z m3599 15 c288 -32 544
-154 749 -357 181 -178 301 -406 351 -662 22 -113 22 -327 0 -440 -77 -395
-331 -730 -678 -895 -190 -89 -346 -125 -549 -125 -340 0 -635 122 -876 364
-243 243 -364 533 -364 876 0 344 119 631 364 876 188 188 404 303 656 348
153 28 213 30 347 15z m-15781 -23 c59 -13 98 -24 171 -51 8 -3 -7 -45 -47
-127 -71 -148 -105 -262 -126 -423 -35 -260 12 -556 121 -775 l33 -65 2 -245
c2 -135 2 -261 1 -281 l-1 -37 -77 -21 c-234 -63 -454 -49 -679 43 -459 187
-725 698 -617 1181 96 429 425 738 863 810 99 17 253 13 356 -9z m-3670 -27
c3 -6 -5 -3 -20 6 -14 10 -26 19 -26 22 0 7 39 -17 46 -28z m21489 -36 c406
-90 709 -435 743 -843 33 -405 -177 -773 -539 -944 -152 -72 -238 -91 -409
-90 -159 1 -235 16 -373 74 -68 28 -191 103 -245 149 l-22 19 25 89 c50 168
67 384 45 563 -22 176 -91 388 -170 521 -22 37 -40 71 -40 74 0 14 101 131
148 172 153 131 341 212 552 237 58 7 211 -4 285 -21z m3252 -379 c53 -33 41
-103 -31 -182 -30 -32 -66 -64 -81 -72 -25 -14 -28 -13 -47 10 l-19 24 40 34
c48 40 54 73 16 98 -23 15 -27 14 -79 -15 l-54 -31 -33 41 c-37 47 -37 46 51
80 99 38 189 43 237 13z m-24100 -389 c342 -67 627 -297 763 -617 187 -439 48
-954 -335 -1241 -348 -261 -835 -273 -1202 -30 -77 51 -215 184 -268 258 -209
294 -252 680 -112 1011 190 451 675 711 1154 619z m6217 -426 c9 -88 8 -99 -8
-99 -30 0 -46 30 -46 85 0 41 4 56 18 64 27 16 29 14 36 -50z m81 49 c23 -10
25 -16 25 -75 0 -56 -2 -63 -19 -63 -16 0 -21 9 -26 48 -3 26 -8 59 -10 75 -5
31 -5 31 30 15z m17200 -63 c347 -88 601 -344 697 -703 28 -106 30 -305 4
-417 -64 -280 -234 -506 -477 -639 -392 -214 -884 -124 -1176 216 -159 185
-246 444 -229 678 17 242 131 483 301 638 162 148 328 223 570 256 62 9 221
-6 310 -29z m-15036 -233 c109 -52 233 -203 294 -357 47 -118 51 -110 -58
-145 -52 -16 -106 -30 -120 -30 -31 0 -72 19 -79 36 -8 20 28 151 63 234 37
87 38 110 7 139 -18 17 -33 22 -62 19 -45 -4 -71 -36 -105 -129 -12 -33 -25
-59 -29 -59 -30 0 -117 115 -174 227 l-26 52 30 16 c79 41 170 40 259 -3z
m5800 -17 c92 -47 130 -117 131 -240 0 -146 -62 -312 -189 -504 -8 -12 -32 -3
-135 50 -69 35 -126 70 -126 78 0 7 35 48 78 90 58 58 98 88 162 120 47 24 88
48 92 54 14 23 8 84 -9 99 -46 40 -107 24 -241 -63 l-73 -48 -9 25 c-13 34
-12 78 4 146 15 67 115 214 150 222 40 8 119 -5 165 -29z m2596 -119 c34 -15
35 -16 35 -74 0 -69 -4 -72 -102 -72 -57 0 -58 1 -58 28 0 15 -3 43 -6 64 -6
32 -3 38 22 52 37 19 66 20 109 2z m-15099 -173 c106 -160 281 -321 430 -396
27 -14 117 -49 199 -77 338 -117 444 -211 476 -420 34 -222 -29 -307 -360
-484 -119 -65 -128 -67 -269 -92 -194 -33 -348 -66 -510 -110 -73 -20 -136
-34 -138 -31 -3 3 -18 41 -33 85 -65 187 -187 333 -341 406 -58 27 -75 31
-155 31 -80 0 -97 -4 -157 -32 -36 -17 -85 -50 -108 -73 -50 -50 -96 -143
-105 -213 -4 -29 -15 -72 -26 -96 -11 -24 -38 -107 -61 -185 -22 -77 -52 -166
-66 -196 -43 -92 -195 -236 -309 -294 -84 -42 -170 -32 -192 23 -28 69 -64
264 -68 370 -11 222 18 281 247 515 113 115 192 186 249 224 180 120 322 283
417 477 64 132 99 250 116 389 l12 103 33 -20 c24 -14 32 -24 28 -37 -3 -9 3
-27 12 -38 26 -31 220 -124 271 -130 38 -4 45 -1 75 30 21 23 57 43 110 62 43
16 82 36 87 46 13 24 13 121 1 154 -9 22 -6 27 25 45 19 11 37 27 40 36 4 8 7
15 9 15 2 0 29 -39 61 -87z m19763 -16 c21 -19 43 -36 49 -38 8 -3 6 -23 -5
-66 -21 -79 -12 -109 42 -140 58 -33 195 -84 228 -85 34 -1 81 41 104 93 15
34 19 37 45 32 43 -9 113 15 159 55 31 27 40 31 36 16 -4 -10 -11 -62 -18
-114 -40 -332 90 -686 337 -920 125 -118 241 -190 389 -240 277 -94 540 -88
794 15 35 14 65 24 67 23 4 -5 -205 -510 -291 -703 -205 -458 -497 -979 -696
-1241 -60 -80 -139 -200 -139 -213 0 -5 -50 -61 -111 -125 -134 -141 -333
-319 -555 -498 l-83 -66 -42 56 c-24 31 -66 82 -95 112 -28 30 -68 88 -88 128
-61 122 -163 287 -243 395 -94 124 -318 350 -433 436 -47 35 -86 67 -88 71 -2
5 11 31 28 59 47 76 91 213 97 301 9 127 -43 228 -147 284 -121 66 -273 37
-429 -80 -67 -50 -166 -159 -202 -222 l-22 -38 -95 28 c-53 16 -97 29 -98 31
-1 1 -6 138 -10 304 l-7 301 44 12 c108 28 184 59 392 162 269 133 374 194
493 286 176 136 259 259 259 384 0 58 -4 72 -30 109 -99 139 -373 166 -810 78
-82 -17 -197 -46 -254 -65 -57 -19 -106 -32 -110 -29 -3 3 -9 153 -12 333 -4
180 -10 420 -13 535 l-6 207 47 -34 c116 -82 274 -149 433 -181 103 -21 285
-24 390 -6 222 39 461 162 605 311 l40 41 7 -29 c5 -16 25 -45 47 -65z
m-20059 -3 c11 -33 6 -59 -9 -49 -5 2 -11 17 -14 32 -3 16 -9 36 -12 46 -6 13
-3 16 8 11 9 -3 21 -21 27 -40z m-80 -22 c13 -48 13 -52 -3 -52 -15 0 -41 75
-32 90 10 17 24 2 35 -38z m10360 18 c448 -28 850 -90 1235 -190 295 -77 603
-185 715 -251 36 -21 101 -50 145 -64 141 -45 385 -191 606 -362 142 -110 407
-372 523 -518 84 -106 260 -358 272 -390 4 -11 -26 1 -87 34 -240 128 -520
213 -800 242 -175 18 -463 7 -632 -25 -178 -34 -412 -111 -557 -185 -413 -209
-494 -252 -574 -304 -122 -80 -181 -142 -289 -309 -52 -79 -128 -186 -169
-238 -223 -285 -306 -449 -348 -683 -20 -116 -50 -378 -50 -444 l0 -37 -37 35
c-21 20 -53 46 -70 58 -18 12 -33 30 -33 40 0 40 -52 120 -98 151 -71 47 -138
62 -271 62 -200 -1 -422 -62 -501 -137 -23 -22 -37 -25 -152 -31 l-127 -7 -5
24 c-2 13 -10 70 -16 127 -40 367 -216 778 -465 1087 -82 102 -248 269 -345
346 -307 246 -702 413 -1093 464 -141 18 -423 19 -554 1 -51 -6 -93 -10 -93
-7 0 9 57 79 165 206 199 232 345 359 665 581 340 237 486 308 910 444 614
197 840 246 1275 279 161 12 664 13 855 1z m10073 -68 c14 -15 15 -23 5 -50
-14 -36 -16 -37 -63 -18 -33 14 -33 15 -23 50 9 30 16 36 38 36 15 0 34 -8 43
-18z m-20656 -1178 c95 -46 202 -183 248 -315 l13 -36 -71 -12 c-40 -7 -83
-15 -96 -18 -24 -6 -24 -5 -18 46 3 29 15 67 27 85 24 40 25 54 3 78 -38 42
-101 0 -124 -85 -6 -23 -13 -48 -15 -56 -3 -9 -18 1 -44 27 -70 73 -166 104
-204 66 -36 -35 -4 -94 51 -94 27 0 113 -75 113 -98 0 -12 -10 -14 -60 -9
-116 13 -140 46 -140 194 0 92 15 138 58 185 67 71 169 87 259 42z m4563 -29
c48 -25 88 -80 96 -132 13 -86 -24 -226 -92 -348 l-26 -45 -69 0 c-90 0 -129
18 -129 61 0 34 15 68 39 87 24 19 109 62 122 62 20 0 49 32 49 53 0 28 -28
57 -55 57 -13 0 -57 -17 -99 -38 -66 -33 -76 -36 -76 -20 0 25 -30 98 -41 98
-18 0 -8 23 43 95 45 65 57 76 92 84 49 12 108 6 146 -14z m-1940 -235 c519
-36 1004 -139 1414 -302 185 -73 249 -107 276 -144 14 -19 72 -75 130 -125
182 -157 223 -221 224 -343 l1 -79 -130 -34 c-161 -42 -314 -102 -384 -149
-34 -23 -86 -45 -144 -60 -625 -167 -1115 -689 -1247 -1326 -38 -184 -60 -644
-41 -838 36 -358 143 -619 335 -819 159 -165 277 -223 684 -341 212 -60 446
-143 504 -177 73 -43 99 -150 79 -327 -20 -175 -80 -267 -217 -333 l-70 -33
-145 69 c-254 121 -367 153 -549 153 -232 1 -360 -79 -390 -244 -8 -44 -7 -70
5 -124 9 -38 20 -136 25 -219 4 -82 16 -215 25 -295 37 -312 -7 -412 -240
-542 -214 -121 -386 -170 -522 -151 -236 34 -417 243 -509 590 -35 130 -43
229 -32 397 8 132 11 144 48 228 57 125 80 217 80 315 0 195 -104 313 -275
313 -105 0 -172 -21 -351 -111 -136 -67 -184 -86 -300 -115 -199 -49 -291 -61
-361 -46 -66 14 -92 29 -128 76 -47 62 -69 141 -70 246 0 89 2 100 36 170 20
41 62 107 93 147 51 63 71 79 169 134 303 167 539 402 705 701 27 49 97 207
116 261 5 16 13 13 66 -23 34 -23 98 -75 143 -115 45 -41 108 -89 140 -106 32
-17 61 -37 63 -44 12 -32 62 -38 242 -32 97 3 189 10 204 16 43 16 61 63 66
177 l5 102 47 6 c94 12 171 97 212 230 25 84 21 152 -17 234 -27 60 -88 129
-142 163 -21 13 -33 29 -33 42 0 52 -69 122 -145 148 -54 18 -231 15 -325 -5
-112 -25 -175 -58 -240 -126 l-57 -60 -66 0 -66 0 -5 58 c-23 220 -58 382
-115 525 -222 559 -686 951 -1276 1077 -127 28 -412 38 -559 21 -82 -10 -109
-10 -141 1 -35 11 -40 17 -43 46 -8 81 104 178 408 352 41 24 138 92 217 152
190 144 259 188 427 268 180 87 352 156 591 236 233 77 314 92 569 105 180 9
244 16 190 21 -10 1 19 5 66 8 142 10 576 10 730 0z m4740 -206 c580 -79 1103
-423 1422 -936 212 -340 320 -787 288 -1182 -39 -476 -224 -895 -543 -1233
-283 -299 -647 -500 -1072 -590 -121 -25 -147 -27 -370 -28 -250 0 -305 6
-486 50 -149 37 -242 71 -394 144 -600 289 -1009 847 -1111 1516 -34 228 -18
531 41 765 168 666 665 1200 1315 1414 301 99 588 124 910 80z m5781 16 c241
-25 482 -92 695 -195 133 -64 350 -207 359 -236 4 -11 23 -28 43 -36 20 -8 72
-50 115 -92 562 -545 755 -1372 492 -2111 -72 -201 -211 -441 -358 -617 -270
-321 -667 -563 -1072 -654 -222 -50 -498 -63 -719 -34 -359 47 -718 203 -1000
434 -86 71 -255 244 -317 326 -553 723 -556 1702 -8 2431 405 540 1107 850
1770 784z m-15334 -166 c59 -14 146 -33 192 -43 l85 -18 18 -53 c10 -29 15
-56 12 -61 -13 -22 -73 -42 -144 -46 -85 -6 -181 7 -280 38 -74 24 -330 147
-330 159 0 12 76 39 135 50 71 12 187 3 312 -26z m25246 -376 c36 -19 -7 -121
-98 -230 -113 -138 -266 -232 -610 -378 -93 -39 -213 -93 -266 -120 l-96 -49
97 177 c53 97 123 229 155 292 l58 116 59 17 c32 10 120 44 196 76 172 74 250
101 327 111 66 8 150 3 178 -12z m-3419 -267 c43 -28 55 -58 54 -126 0 -33 -3
-50 -5 -37 -11 58 -97 66 -194 17 l-49 -24 0 24 c0 27 -24 55 -48 55 -21 0 13
35 78 79 55 37 119 42 164 12z m-3561 -43 c19 -24 44 -59 56 -78 37 -61 24
-170 -21 -170 -16 0 -78 66 -78 83 0 8 7 20 15 27 17 14 19 43 5 71 -15 28
-66 25 -93 -5 l-21 -23 -23 28 c-13 15 -33 31 -43 34 -17 5 -18 10 -9 26 15
29 65 48 126 49 49 0 53 -2 86 -42z m2172 -153 c392 -42 739 -130 1058 -268
274 -119 520 -296 705 -510 77 -89 201 -255 202 -269 0 -4 -30 7 -67 24 -93
42 -216 83 -315 105 -105 22 -426 25 -533 4 -191 -37 -407 -129 -559 -239 -45
-32 -116 -78 -159 -101 -213 -117 -437 -363 -510 -561 -39 -102 -59 -235 -55
-351 l3 -96 -22 14 c-11 8 -24 26 -27 40 -12 45 -37 72 -92 99 -47 23 -67 27
-147 26 -111 0 -212 -22 -286 -62 -30 -17 -64 -30 -75 -30 -24 0 -100 36 -116
55 -6 7 -20 56 -31 109 -54 264 -172 486 -366 687 -126 130 -240 214 -398 290
-203 98 -358 133 -647 145 -144 6 -170 9 -184 25 -27 30 -11 99 48 208 29 53
68 127 88 165 23 45 46 74 66 85 139 75 321 158 432 195 332 113 786 197 1224
226 180 12 591 4 763 -15z m1415 -66 c-12 -30 -27 -57 -33 -61 -7 -4 -33 -8
-59 -8 -35 0 -54 6 -74 24 l-28 23 48 28 c26 15 67 30 91 33 25 2 50 11 57 19
21 26 20 -2 -2 -58z m-19607 -90 c660 -99 1174 -587 1319 -1253 19 -86 22
-132 22 -306 0 -175 -3 -220 -22 -307 -71 -327 -208 -581 -436 -808 -70 -70
-159 -146 -211 -181 -257 -174 -561 -275 -839 -278 l-119 -1 -89 165 c-256
469 -475 947 -666 1451 -84 222 -234 677 -293 888 l-44 154 85 80 c237 222
562 368 905 407 93 10 283 5 388 -11z m4676 -3 c46 -9 126 -28 178 -42 75 -22
93 -30 89 -43 -99 -308 -133 -535 -123 -821 12 -318 77 -586 213 -879 l44 -94
5 -151 c3 -83 7 -330 10 -549 l6 -398 -63 -28 c-83 -38 -241 -86 -353 -108
-129 -25 -414 -25 -550 1 -628 117 -1129 598 -1266 1215 -33 152 -44 324 -30
471 34 371 182 694 436 959 235 244 521 401 842 460 59 11 126 22 148 25 78 8
331 -3 414 -18z m11347 -911 c588 -112 1014 -627 1014 -1225 0 -601 -425
-1110 -1023 -1225 -106 -21 -314 -20 -432 0 -219 39 -443 146 -610 294 l-38
33 -15 630 -14 629 40 97 c70 170 104 293 149 532 7 40 13 47 69 82 121 76
322 145 489 167 91 13 268 6 371 -14z m3609 14 c288 -35 541 -157 743 -358
238 -236 366 -545 365 -881 0 -219 -33 -352 -141 -565 -69 -138 -113 -200
-215 -304 -331 -340 -827 -461 -1278 -311 -394 131 -705 465 -814 875 -33 122
-45 353 -26 485 37 254 151 486 331 674 275 289 658 431 1035 385z m-10282
-791 c83 -128 143 -199 198 -234 79 -50 229 -74 339 -54 36 7 119 17 185 24
66 7 130 18 142 24 46 25 73 125 73 275 l0 77 40 0 c52 0 102 21 155 65 l42
34 8 -72 c19 -194 72 -406 140 -554 121 -263 352 -480 670 -629 75 -35 286
-109 360 -127 11 -3 -844 -5 -1900 -5 l-1920 -1 80 38 c109 51 271 150 385
234 123 92 346 315 440 441 143 192 269 437 340 662 l23 71 62 -76 c34 -42 96
-129 138 -193z m687 192 l40 -20 0 -114 0 -114 -39 -4 -39 -3 -6 65 c-7 81 -8
210 -1 210 3 0 24 -9 45 -20z m-197 -177 c5 -81 5 -83 -18 -83 -30 0 -35 14
-42 140 -6 104 -6 106 18 116 23 11 24 10 30 -40 4 -28 9 -88 12 -133z m-7694
-407 c26 -14 29 -21 35 -86 3 -39 3 -82 0 -95 -6 -23 -11 -25 -60 -25 l-54 0
0 120 0 120 25 -10 c14 -5 38 -16 54 -24z m-139 -101 l0 -115 -24 0 c-14 0
-27 4 -30 9 -4 5 -9 50 -12 99 l-7 90 29 16 c16 8 32 15 37 16 4 0 7 -52 7
-115z m12764 -2850 c36 -1589 67 -2945 69 -3011 l4 -122 -66 -27 c-420 -176
-682 -275 -1026 -388 -1537 -506 -3183 -691 -4805 -541 -244 22 -602 69 -843
109 -273 46 -609 114 -621 126 -11 10 13 146 59 335 38 155 70 210 179 318
168 166 389 279 826 422 347 115 556 161 965 214 319 41 455 62 720 111 149
27 389 68 535 91 l265 42 1243 6 1244 5 24 28 c23 27 24 35 24 163 l0 134 -41
45 -42 45 12 152 c19 236 44 334 134 513 56 112 122 188 254 292 96 75 114
108 89 168 -18 42 -73 70 -115 60 -51 -13 -172 -118 -371 -325 -111 -115 -223
-225 -249 -244 -44 -33 -50 -34 -90 -25 -148 33 -258 159 -283 327 -17 110 -1
164 86 280 102 136 252 298 395 426 67 60 126 117 132 127 35 66 -16 149 -90
149 -36 0 -50 -8 -119 -66 -42 -37 -99 -88 -127 -114 -50 -48 -51 -48 -150
-60 -135 -17 -266 -10 -327 18 l-48 21 0 1107 0 1106 23 -6 c12 -4 96 -9 187
-13 376 -13 709 57 1045 222 310 151 582 371 778 628 29 37 53 62 54 55 2 -7
32 -1313 67 -2903z m3361 2260 c148 -371 244 -479 559 -631 219 -105 266 -118
441 -121 83 -2 218 -6 300 -10 170 -6 310 9 461 53 91 26 290 115 347 156 l31
23 -33 -60 c-51 -90 -253 -413 -354 -565 -1003 -1504 -2366 -2777 -3937 -3677
-211 -120 -500 -276 -505 -271 -8 7 -45 288 -60 443 -22 236 -34 521 -45 1070
-14 683 -18 736 -96 1495 -21 205 -29 664 -15 826 27 302 102 431 287 494 47
16 75 18 211 13 323 -12 592 63 853 236 208 138 421 396 506 611 l27 69 78
-70 c65 -58 81 -79 93 -119 29 -99 20 -94 172 -87 75 4 150 13 171 21 21 8 69
17 107 20 37 3 75 11 84 18 27 23 42 76 42 148 0 69 0 70 26 70 41 0 91 29
126 72 l31 40 22 -74 c12 -40 43 -127 70 -193z m-553 67 c-13 -2 -25 -2 -27 0
-1 2 -5 31 -9 65 -7 60 -6 62 21 77 l28 14 5 -76 c5 -75 4 -77 -18 -80z m109
138 c15 -9 19 -22 19 -69 0 -50 -3 -59 -20 -64 -26 -7 -28 -3 -36 76 -7 71 -3
78 37 57z m-5281 -1965 l0 -1455 -1465 0 c-806 0 -1465 2 -1465 4 0 7 211 55
360 81 l144 25 1117 0 c1114 0 1116 0 1143 21 l26 20 0 1303 0 1303 -23 21
-23 22 -2209 2 -2208 3 49 27 c27 15 88 38 134 52 l85 25 2168 0 2167 1 0
-1455z m-291 513 c0 -376 -3 -677 -6 -670 -3 7 -26 12 -63 12 -61 0 -73 -8
-121 -80 l-17 -25 -11 40 c-18 63 -19 64 -86 53 -33 -6 -66 -15 -73 -21 -7 -5
-36 -42 -65 -81 l-52 -71 3 -274 4 -273 36 8 c21 4 63 8 95 8 53 1 60 4 83 34
14 17 29 32 33 32 4 0 13 -16 20 -35 l13 -36 56 3 57 3 32 60 c34 63 39 86 52
225 6 60 9 -16 10 -262 l1 -348 -2225 0 -2225 0 0 1149 0 1149 38 30 c20 16
46 34 57 40 15 8 600 11 2188 12 l2167 0 -1 -682z m-10571 271 c38 -13 58 -43
72 -104 29 -130 -82 -390 -223 -521 -164 -153 -471 -216 -562 -115 -13 16 -20
41 -23 84 -8 121 75 274 232 433 81 82 103 97 206 148 157 77 236 97 298 75z
m1897 -278 c50 -11 117 -31 150 -45 l60 -26 -50 5 -50 5 52 -19 c28 -11 78
-25 110 -31 37 -8 141 -55 291 -131 229 -116 377 -180 499 -216 l62 -18 18
-60 c13 -43 18 -92 18 -175 0 -98 -4 -123 -23 -166 -53 -118 -152 -156 -308
-119 -171 40 -563 233 -808 397 -126 85 -334 246 -351 272 -32 49 -58 133 -59
193 -1 58 2 65 30 94 60 59 196 74 359 40z m8623 -703 c16 -16 16 -276 0 -404
l-11 -95 -40 3 -39 3 -42 115 c-23 63 -45 121 -50 128 -19 30 -26 -9 -26 -144
l0 -144 -40 0 -40 0 0 265 0 265 25 6 c13 3 29 4 35 2 6 -2 27 -53 48 -114 44
-127 92 -230 107 -227 6 2 13 59 17 130 11 210 20 247 56 211z m779 -1845
l371 -378 -1733 -3 c-1448 -2 -1747 0 -1816 12 -74 12 99 14 1449 15 1652 1
1574 -1 1602 50 27 51 14 82 -112 272 -66 101 -154 235 -194 297 l-73 112 67
0 67 1 372 -378z"/>
<path d="M12325 24766 c-16 -7 -47 -31 -67 -54 -69 -76 -62 -182 18 -259 47
-46 89 -59 155 -50 134 18 203 179 126 295 -46 70 -154 102 -232 68z"/>
<path d="M15988 24430 c-80 -14 -147 -99 -148 -185 0 -56 37 -124 86 -158 35
-24 51 -29 104 -29 53 0 69 5 104 29 172 119 61 380 -146 343z"/>
<path d="M10215 22496 c-40 -17 -90 -75 -105 -121 -40 -120 55 -248 183 -248
172 0 257 191 144 320 -18 20 -46 42 -64 49 -41 17 -119 17 -158 0z"/>
<path d="M6516 21886 c-77 -29 -126 -99 -126 -182 0 -228 329 -266 379 -44 33
148 -112 278 -253 226z"/>
<path d="M17075 21856 c-132 -59 -135 -247 -5 -314 150 -77 311 92 228 240
-43 75 -144 109 -223 74z"/>
<path d="M20118 21160 c-54 -29 -81 -73 -86 -141 -7 -98 53 -172 150 -185 60
-8 128 23 163 74 34 50 35 144 2 193 -49 73 -152 99 -229 59z"/>
<path d="M15415 19805 c-5 -2 -22 -6 -37 -9 -39 -9 -88 -54 -109 -101 -45 -98
-6 -199 96 -246 78 -36 168 -13 221 56 22 30 29 50 32 101 4 54 1 70 -21 106
-14 25 -41 52 -64 64 -37 21 -98 36 -118 29z"/>
<path d="M11811 19399 c-96 -69 -107 -200 -24 -281 61 -59 127 -73 201 -43 76
32 113 88 114 170 1 110 -76 185 -189 185 -51 0 -66 -5 -102 -31z"/>
<path d="M3942 19069 c-118 -59 -122 -231 -7 -296 135 -76 299 62 241 202 -22
52 -43 74 -91 96 -52 24 -91 24 -143 -2z"/>
<path d="M25487 18575 c-45 -16 -83 -48 -104 -89 -22 -43 -14 -143 16 -184 69
-97 228 -94 296 5 20 30 25 50 25 96 0 32 -7 71 -15 86 -20 39 -69 78 -113 91
-47 13 -58 12 -105 -5z"/>
<path d="M9175 18172 c-143 -68 -155 -263 -21 -346 38 -24 57 -29 106 -29 193
2 267 249 107 360 -51 36 -135 42 -192 15z"/>
<path d="M5295 17886 c-60 -28 -115 -110 -115 -173 0 -116 87 -203 202 -203
67 0 121 30 163 88 26 37 30 53 30 105 0 73 -20 114 -78 161 -33 26 -48 31
-105 33 -42 2 -78 -2 -97 -11z"/>
<path d="M18315 17768 c-78 -46 -108 -153 -65 -238 28 -55 72 -83 141 -88 71
-5 121 17 160 71 53 73 35 189 -39 245 -49 38 -141 42 -197 10z"/>
<path d="M1623 17231 c-59 -27 -93 -81 -93 -149 0 -64 18 -102 67 -139 31 -24
46 -28 99 -28 70 0 102 17 142 75 31 46 31 134 -1 181 -26 39 -97 79 -142 79
-16 0 -49 -9 -72 -19z"/>
<path d="M2790 15105 c0 -8 2 -15 4 -15 2 0 6 7 10 15 3 8 1 15 -4 15 -6 0
-10 -7 -10 -15z"/>
<path d="M21548 17080 c-80 -24 -138 -96 -138 -171 1 -50 33 -112 76 -145 33
-25 46 -29 104 -29 58 0 71 4 104 29 71 54 93 144 56 221 -23 48 -61 79 -116
94 -44 12 -49 12 -86 1z"/>
<path d="M12178 15661 c-48 -16 -88 -45 -116 -85 -23 -34 -27 -49 -27 -110 0
-59 4 -77 24 -107 68 -99 183 -123 284 -59 118 75 116 258 -4 332 -48 30 -118
42 -161 29z"/>
<path d="M16180 15658 c-87 -24 -140 -99 -140 -195 1 -182 217 -268 342 -136
81 85 74 211 -15 290 -55 48 -116 62 -187 41z"/>
<path d="M6751 13789 c-76 -31 -121 -96 -121 -179 0 -113 78 -190 193 -190
129 0 222 136 176 257 -14 38 -67 92 -106 109 -37 16 -106 17 -142 3z"/>
<path d="M10429 13780 c-66 -35 -109 -107 -109 -180 1 -36 33 -101 66 -132 37
-34 74 -48 130 -48 59 0 103 19 141 63 110 126 22 318 -144 317 -27 -1 -64 -9
-84 -20z"/>
<path d="M17345 13361 c-119 -29 -183 -145 -141 -256 76 -198 369 -142 369 70
0 56 -12 85 -52 128 -46 50 -115 73 -176 58z"/>
<path d="M21033 13361 c-100 -25 -159 -125 -139 -236 14 -71 107 -144 186
-145 49 0 118 37 154 83 42 52 48 143 14 202 -43 74 -135 115 -215 96z"/>
<path d="M5170 13513 c-135 -51 -146 -253 -17 -319 75 -39 183 -11 226 59 56
92 23 205 -76 256 -22 11 -106 14 -133 4z"/>
<path d="M22987 13557 c-76 -46 -104 -130 -69 -209 26 -59 71 -90 137 -96 103
-8 179 60 179 163 0 128 -139 207 -247 142z"/>
<path d="M2134 12671 c-115 -70 -122 -226 -14 -297 50 -33 126 -38 177 -11
119 63 123 239 8 304 -51 29 -127 31 -171 4z"/>
<path d="M25605 12357 c-45 -25 -85 -92 -85 -142 0 -16 9 -48 19 -71 54 -118
227 -126 290 -14 83 148 -76 310 -224 227z"/>
<path d="M10638 9399 c-80 -11 -163 -54 -224 -115 -161 -162 -161 -418 0 -580
162 -161 418 -161 580 0 280 281 38 753 -356 695z"/>
<path d="M16538 9399 c-31 -4 -84 -22 -116 -38 -248 -125 -303 -456 -109 -655
236 -240 643 -108 699 226 45 272 -194 508 -474 467z"/>
<path d="M3325 8351 c-50 -13 -92 -39 -123 -76 -68 -83 -68 -197 0 -280 94
-113 270 -105 353 16 38 54 47 156 20 213 -45 94 -156 150 -250 127z"/>
<path d="M7953 8351 c-153 -38 -222 -222 -129 -344 95 -125 274 -123 361 4 38
54 47 156 20 213 -45 95 -155 150 -252 127z"/>
<path d="M19330 7755 c-81 -37 -130 -112 -130 -200 0 -121 93 -215 212 -215
218 1 299 276 117 397 -51 34 -145 42 -199 18z"/>
<path d="M23063 7741 c-134 -33 -190 -206 -100 -308 63 -71 149 -90 227 -50
121 61 147 205 56 305 -41 46 -119 68 -183 53z"/>
<path d="M13332 6095 c-204 -52 -393 -218 -458 -404 -57 -161 -10 -387 102
-493 36 -34 105 -64 164 -73 40 -6 55 -1 145 43 118 59 158 88 193 139 14 20
39 48 54 62 16 13 42 47 58 75 28 47 30 58 30 154 0 86 -3 104 -16 109 -22 8
-242 -26 -275 -43 -14 -7 -45 -34 -68 -60 -41 -44 -43 -45 -37 -18 4 16 17 49
29 74 l22 45 62 5 62 5 32 63 c17 35 41 68 53 73 20 9 21 17 21 124 l0 115
-38 15 c-20 8 -38 15 -40 14 -1 0 -44 -11 -95 -24z"/>
<path d="M14010 6096 c-19 -7 -68 -30 -108 -50 -84 -42 -112 -79 -162 -208
-72 -186 -82 -328 -33 -475 37 -111 82 -184 131 -215 45 -27 196 -38 258 -18
43 15 119 80 141 123 17 34 57 223 77 367 17 122 7 280 -23 337 -25 50 -80 99
-145 129 -57 27 -85 29 -136 10z m11 -557 c-8 -21 -10 -18 -10 22 -1 25 2 75
7 110 l7 64 3 -86 c1 -47 -2 -96 -7 -110z"/>
<path d="M12694 5000 c-83 -17 -229 -112 -286 -187 -51 -67 -61 -110 -56 -242
4 -113 6 -124 39 -187 41 -82 90 -114 174 -114 62 0 191 58 254 115 66 60 66
106 -2 179 -29 31 -50 33 -84 6 -48 -37 -97 -21 -113 38 -9 36 -5 64 15 116 7
16 15 17 65 12 54 -6 60 -5 101 27 44 33 44 33 50 107 6 85 1 95 -56 121 -44
20 -43 20 -101 9z m104 -102 l3 -46 -41 9 c-51 12 -94 -5 -137 -54 -42 -48
-56 -96 -51 -178 3 -58 8 -73 30 -95 30 -31 94 -42 150 -26 41 11 56 2 60 -38
4 -33 -52 -70 -106 -70 -56 0 -138 48 -173 102 -24 36 -28 53 -32 130 -4 117
2 144 48 215 50 77 100 105 186 101 l60 -3 3 -47z"/>
<path d="M12989 4967 c-74 -101 -79 -120 -78 -294 1 -87 4 -210 8 -273 l6
-115 120 -8 c118 -8 120 -8 138 15 10 13 28 35 40 51 31 38 45 83 46 143 1 59
-5 64 -75 64 l-44 0 1 83 c0 45 4 141 8 212 6 90 5 133 -3 141 -6 6 -39 14
-74 18 l-62 6 -31 -43z m135 -24 c4 -9 2 -80 -4 -157 -7 -78 -10 -170 -8 -206
l3 -65 55 -5 c54 -5 55 -6 58 -39 2 -18 0 -37 -5 -41 -14 -12 -164 6 -174 21
-10 16 -13 468 -3 493 9 22 70 22 78 -1z"/>
<path d="M13465 4998 c-11 -6 -43 -31 -72 -55 -74 -62 -88 -104 -79 -241 9
-153 21 -216 56 -291 52 -110 93 -141 187 -141 51 0 68 6 142 49 92 53 101 65
130 161 40 131 59 269 51 353 -19 178 -21 181 -112 175 -51 -3 -72 -10 -111
-36 -47 -33 -47 -33 -47 -9 0 12 -5 28 -12 35 -15 15 -106 15 -133 0z m85
-195 c1 -185 16 -249 63 -271 45 -22 94 0 118 52 16 35 19 66 19 209 l0 167
29 0 c17 0 32 -4 35 -8 3 -5 10 -54 15 -111 9 -84 8 -115 -4 -174 -9 -40 -21
-97 -26 -127 -15 -76 -42 -124 -85 -150 -32 -20 -40 -21 -75 -11 -47 14 -87
64 -120 150 -20 49 -23 80 -27 244 l-4 187 31 0 31 0 0 -157z"/>
<path d="M15020 4996 c-20 -8 -59 -25 -88 -40 -46 -23 -56 -34 -88 -97 -42
-84 -74 -202 -74 -273 0 -104 52 -241 110 -290 29 -24 38 -26 127 -26 l96 0
38 40 c88 92 147 438 97 570 -14 37 -57 79 -110 106 -53 27 -59 28 -108 10z
m110 -61 c72 -37 100 -134 81 -279 -21 -162 -63 -290 -107 -326 -25 -21 -88
-18 -114 5 -81 73 -117 344 -62 468 22 50 70 100 121 127 44 23 45 24 81 5z"/>
<path d="M15040 4833 c-45 -45 -60 -104 -60 -226 1 -152 51 -209 119 -132 57
66 80 206 51 324 -11 48 -31 71 -61 71 -6 0 -28 -17 -49 -37z m-13 -240 c-3
-10 -5 -2 -5 17 0 19 2 27 5 18 2 -10 2 -26 0 -35z"/>
<path d="M11474 4958 l-44 -43 -4 -95 c-3 -52 -8 -197 -12 -322 l-7 -228 98 0
99 0 47 50 c28 30 49 63 53 82 11 64 25 249 32 422 l7 176 -112 0 -112 0 -45
-42z m215 -130 c0 -73 -4 -189 -8 -257 -6 -113 -9 -125 -30 -142 -13 -11 -38
-19 -57 -19 l-34 0 0 63 c0 84 18 392 26 445 l6 42 49 0 49 0 -1 -132z"/>
<path d="M11980 4987 c-64 -10 -76 -19 -141 -106 l-49 -64 0 -261 c0 -144 4
-267 9 -275 7 -11 17 -11 60 -1 28 7 67 9 86 6 31 -6 38 -3 66 29 17 19 34 35
38 35 4 0 11 -15 16 -32 10 -32 12 -33 66 -36 l57 -3 32 58 c38 71 44 103 65
369 14 175 14 215 3 249 -13 40 -13 40 -69 43 -54 3 -57 2 -92 -38 -21 -22
-37 -45 -37 -50 0 -25 -18 -7 -24 23 -11 57 -23 65 -86 54z m270 -175 c0 -116
-12 -266 -26 -334 -5 -24 -10 -28 -42 -28 -36 0 -38 2 -56 53 -50 143 -78 206
-89 201 -9 -3 -12 -45 -12 -147 l0 -142 -36 -3 -36 -3 -6 128 c-11 208 -9 387
5 401 7 7 23 12 38 12 23 0 28 -9 63 -113 47 -138 95 -239 110 -234 8 2 14 53
18 158 6 168 16 207 49 189 18 -10 20 -22 20 -138z"/>
<path d="M14102 4979 c-51 -26 -128 -109 -154 -166 -10 -23 -19 -63 -20 -88
-1 -45 9 -64 88 -172 15 -22 14 -26 -30 -101 -51 -87 -52 -91 -32 -131 20 -37
55 -51 132 -51 84 0 121 16 170 76 112 136 121 214 36 342 l-35 53 32 80 c43
112 49 154 23 168 -37 20 -162 14 -210 -10z m178 -38 c0 -10 -5 -32 -11 -48
-10 -30 -11 -30 -48 -21 -52 13 -91 -10 -91 -54 0 -23 15 -44 73 -101 113
-110 136 -203 67 -267 -45 -42 -93 -52 -154 -32 -43 14 -51 21 -51 42 0 19 5
24 20 22 105 -16 121 -15 143 13 41 52 18 107 -71 174 -72 53 -100 98 -101
166 -1 86 48 124 162 125 54 0 62 -2 62 -19z"/>
<path d="M14462 4956 l-47 -44 -3 -104 c-2 -56 -7 -197 -11 -313 -4 -115 -5
-213 -3 -217 5 -12 180 -10 202 2 10 5 34 31 54 58 31 42 36 60 46 138 11 93
30 395 30 477 l0 47 -110 0 -111 0 -47 -44z m213 -17 c10 -29 -4 -426 -16
-472 -10 -40 -36 -57 -85 -57 -24 0 -24 1 -24 98 0 111 17 383 26 425 5 24 10
27 49 27 36 0 45 -4 50 -21z"/>
</g>
</svg>
